<svg width="96" height="25" viewBox="0 0 96 25" fill="none" xmlns="http://www.w3.org/2000/svg">
<path d="M12.5122 25C19.4225 25 25.0244 19.4035 25.0244 12.5C25.0244 5.59645 19.4225 0 12.5122 0C5.60191 0 0 5.59645 0 12.5C0 19.4035 5.60191 25 12.5122 25Z" fill="#4EB964"/>
<path d="M10.028 6.81836H12.5121L9.11276 18.5608H6.82471L10.028 6.81836ZM15.7153 6.81836H18.1995L14.9962 18.5608H12.5121L15.7153 6.81836Z" fill="white"/>
<path d="M37.8562 8.79492L39.8789 13.8793L40.3356 15.5741H40.4008L40.7271 13.8793L42.293 8.86012H43.598L40.6618 17.7253H40.0094L37.7256 11.989L37.3994 10.5549H37.3342L37.0079 11.989L34.7895 17.7253H34.137L31.0703 8.79492H32.5711L34.2675 13.8142L34.5937 15.509L34.9853 13.8142L36.8122 8.79492H37.8562Z" fill="#595A5C"/>
<path d="M51.1667 16.8124C50.8404 17.0731 50.3837 17.3339 49.8617 17.4642C49.3397 17.5946 48.7525 17.725 48.1652 17.725C47.5127 17.725 46.9255 17.5946 46.4688 17.3991C46.012 17.2035 45.5553 16.8776 45.2943 16.4865C44.9681 16.0954 44.7723 15.6391 44.5766 15.0524C44.4461 14.4658 44.3809 13.8791 44.3809 13.1621C44.3809 11.6628 44.7071 10.5547 45.3596 9.77247C46.012 8.99022 46.9908 8.59912 48.1652 8.59912C48.5567 8.59912 48.9482 8.66432 49.3397 8.72947C49.7312 8.79467 50.0575 8.99022 50.3837 9.25097C50.7099 9.51172 50.9709 9.83762 51.1667 10.2939C51.3624 10.7502 51.4929 11.3369 51.4929 12.0539C51.4929 12.445 51.4276 12.8361 51.3624 13.2924H45.8163C45.8163 13.8139 45.8816 14.2702 45.9468 14.6613C46.0773 15.0524 46.2078 15.3783 46.4035 15.6391C46.5993 15.8998 46.9255 16.0954 47.2518 16.2909C47.578 16.4213 48.0348 16.4865 48.5567 16.4865C48.9482 16.4865 49.3397 16.4213 49.7312 16.2909C50.1227 16.1606 50.4489 15.965 50.6447 15.8346L51.1667 16.8124ZM48.1652 9.83762C47.5127 9.83762 46.9255 10.0332 46.5341 10.3591C46.1426 10.685 45.8816 11.3369 45.8163 12.1843H50.1227C50.1227 11.3369 49.9269 10.685 49.6007 10.3591C49.2744 9.96802 48.8177 9.83762 48.1652 9.83762Z" fill="#595A5C"/>
<path d="M53.4502 5.33984H54.8205V9.64199H54.8856C55.1467 9.31609 55.4729 9.05534 55.9297 8.85979C56.3209 8.66424 56.7777 8.59904 57.3 8.59904C58.4092 8.59904 59.2572 8.99014 59.8445 9.70719C60.4319 10.4242 60.693 11.5323 60.693 13.0316C60.693 14.5308 60.3013 15.7042 59.5834 16.4864C58.8659 17.2686 57.8218 17.6597 56.4515 17.6597C55.7991 17.6597 55.2117 17.5945 54.6899 17.4641C54.1681 17.3338 53.7764 17.2034 53.5152 17.0079V5.33984H53.4502ZM57.0388 9.83754C56.4515 9.83754 55.9947 9.96794 55.6035 10.2938C55.2117 10.6198 54.9511 11.076 54.8205 11.6627V16.0301C55.0161 16.1605 55.2773 16.2256 55.6035 16.2908C55.9297 16.356 56.2559 16.356 56.5821 16.356C57.365 16.356 58.0174 16.0953 58.4742 15.5086C58.931 14.9219 59.1921 14.0745 59.1921 12.9012C59.1921 12.4449 59.1266 12.0538 59.0616 11.6627C58.9965 11.2716 58.8659 10.9457 58.6703 10.6849C58.4742 10.4242 58.2786 10.1635 58.0174 10.0331C57.7568 9.90274 57.4306 9.83754 57.0388 9.83754Z" fill="#595A5C"/>
<path d="M66.6956 15.1179C66.6956 14.7919 66.5656 14.5312 66.3695 14.2704C66.1738 14.0749 65.9127 13.8793 65.5865 13.749C65.2603 13.6186 64.9341 13.4882 64.6079 13.3579C64.2162 13.2275 63.89 13.0971 63.6293 12.9016C63.3031 12.706 63.042 12.4453 62.8464 12.1845C62.6502 11.8586 62.5202 11.4675 62.5202 10.946C62.5202 10.0986 62.7808 9.51198 63.2376 9.12088C63.6944 8.72973 64.3467 8.53418 65.1953 8.53418C65.8476 8.53418 66.3695 8.59938 66.7612 8.72973C67.1524 8.86013 67.5442 8.99048 67.8704 9.12088L67.5442 10.2942C67.283 10.1638 66.9568 10.0334 66.5656 9.96823C66.1738 9.83788 65.7821 9.83788 65.3258 9.83788C64.8035 9.83788 64.4123 9.90308 64.2162 10.0986C63.9555 10.2942 63.89 10.5549 63.89 11.0112C63.89 11.3371 64.0205 11.5327 64.2162 11.7282C64.4123 11.9238 64.6729 12.0542 64.9991 12.1845C65.3258 12.3149 65.652 12.4453 65.9782 12.5756C66.3695 12.706 66.6956 12.9016 66.9568 13.0971C67.283 13.2927 67.5442 13.5534 67.7398 13.8793C67.9354 14.2053 68.066 14.5964 68.066 15.1179C68.066 15.509 68.0009 15.8349 67.8704 16.1608C67.7398 16.4867 67.5442 16.7475 67.283 17.0082C67.0218 17.2689 66.6956 17.3993 66.3044 17.5297C65.9127 17.66 65.4559 17.7252 64.9991 17.7252C64.3467 17.7252 63.7594 17.66 63.3031 17.5297C62.8464 17.3993 62.4546 17.2689 62.1284 17.0734L62.5202 15.9001C62.7808 16.0304 63.107 16.1608 63.5638 16.2912C64.0205 16.4215 64.4123 16.4867 64.8691 16.4867C65.3909 16.4867 65.7821 16.3563 66.1088 16.1608C66.435 15.9652 66.6956 15.6393 66.6956 15.1179Z" fill="#595A5C"/>
<path d="M69.0449 8.79488H70.4152V7.10008L71.7856 6.70898V8.79488H74.1345V10.0334H71.7856V14.857C71.7856 15.4437 71.8506 15.9 71.9812 16.1607C72.1118 16.4215 72.3729 16.5518 72.7641 16.5518C73.0903 16.5518 73.3515 16.5518 73.5471 16.4867C73.7432 16.4215 74.0039 16.3563 74.2651 16.2259L74.5912 17.2689C74.2651 17.3993 73.9389 17.5296 73.5471 17.66C73.1559 17.7252 72.7641 17.7904 72.3729 17.7904C71.655 17.7904 71.1982 17.5948 70.872 17.2037C70.6109 16.8126 70.4152 16.1607 70.4152 15.183V10.0986H69.0449V8.79488Z" fill="#595A5C"/>
<path d="M78.6363 14.4008L79.0931 16.0956H79.1586L79.5499 14.4008L81.2464 8.79492H82.6167L80.0717 16.6171C79.876 17.2038 79.6804 17.7252 79.4848 18.2467C79.2887 18.7682 79.0931 19.2245 78.8319 19.6808C78.5713 20.0719 78.3101 20.3978 78.049 20.6586C77.7883 20.9193 77.3966 21.0497 77.0704 21.0497C76.6791 21.0497 76.2874 20.9845 76.0262 20.8541L76.2874 19.6808C76.418 19.746 76.6136 19.746 76.7442 19.746C77.0704 19.746 77.3966 19.5504 77.6577 19.2245C77.9839 18.8986 78.1795 18.3119 78.3751 17.4645L74.8521 8.79492H76.418L78.6363 14.4008Z" fill="#595A5C"/>
<path d="M85.683 15.379C85.683 15.7701 85.7481 16.096 85.8786 16.2264C86.0092 16.4219 86.2048 16.4871 86.466 16.4871C86.5966 16.4871 86.7922 16.4871 86.9228 16.422C87.1184 16.422 87.314 16.3568 87.5096 16.2916L87.6402 17.3997C87.4446 17.4649 87.1834 17.5953 86.8572 17.5953C86.531 17.6605 86.2699 17.6605 86.0092 17.6605C85.4869 17.6605 85.0301 17.5301 84.7039 17.2042C84.3777 16.8782 84.1821 16.4219 84.1821 15.7049V5.27539H85.5525V15.379H85.683Z" fill="#595A5C"/>
<path d="M95.601 16.8124C95.2748 17.0731 94.818 17.3339 94.2957 17.4642C93.7739 17.5946 93.1866 17.725 92.5992 17.725C91.9468 17.725 91.3595 17.5946 90.9032 17.3991C90.4464 17.2035 89.9897 16.8776 89.7285 16.4865C89.4023 16.0954 89.2067 15.6391 89.0106 15.0524C88.8805 14.4658 88.8149 13.8791 88.8149 13.1621C88.8149 11.6628 89.1411 10.5547 89.7935 9.77247C90.4464 8.99022 91.425 8.59912 92.5992 8.59912C92.9909 8.59912 93.3822 8.66432 93.7739 8.72947C94.1651 8.79467 94.4918 8.99022 94.818 9.25097C95.1442 9.51172 95.4049 9.83762 95.601 10.2939C95.7966 10.7502 95.9272 11.3369 95.9272 12.0539C95.9272 12.445 95.8616 12.8361 95.7966 13.2924H90.2503C90.2503 13.8139 90.3158 14.2702 90.3809 14.6613C90.5115 15.0524 90.642 15.3783 90.8377 15.6391C91.0333 15.8998 91.3595 16.0954 91.6862 16.2909C92.0124 16.4213 92.4691 16.4865 92.9909 16.4865C93.3822 16.4865 93.7739 16.4213 94.1651 16.2909C94.5569 16.1606 94.8831 15.965 95.0787 15.8346L95.601 16.8124ZM92.5992 9.83762C91.9468 9.83762 91.3595 10.0332 90.9682 10.3591C90.5765 10.685 90.3158 11.3369 90.2503 12.1843H94.5569C94.5569 11.3369 94.3613 10.685 94.0351 10.3591C93.7089 9.96802 93.1866 9.83762 92.5992 9.83762Z" fill="#595A5C"/>
<path d="M10.028 6.81836H12.5121L9.11276 18.5608H6.82471L10.028 6.81836ZM15.7153 6.81836H18.1995L14.9962 18.5608H12.5121L15.7153 6.81836Z" fill="white"/>
<path d="M37.8562 8.79492L39.8789 13.8793L40.3356 15.5741H40.4008L40.7271 13.8793L42.293 8.86012H43.598L40.6618 17.7253H40.0094L37.7256 11.989L37.3994 10.5549H37.3342L37.0079 11.989L34.7895 17.7253H34.137L31.0703 8.79492H32.5711L34.2675 13.8142L34.5937 15.509L34.9853 13.8142L36.8122 8.79492H37.8562Z" fill="white"/>
<path d="M51.1667 16.8124C50.8404 17.0731 50.3837 17.3339 49.8617 17.4642C49.3397 17.5946 48.7525 17.725 48.1652 17.725C47.5127 17.725 46.9255 17.5946 46.4688 17.3991C46.012 17.2035 45.5553 16.8776 45.2943 16.4865C44.9681 16.0954 44.7723 15.6391 44.5766 15.0524C44.4461 14.4658 44.3809 13.8791 44.3809 13.1621C44.3809 11.6628 44.7071 10.5547 45.3596 9.77247C46.012 8.99022 46.9908 8.59912 48.1652 8.59912C48.5567 8.59912 48.9482 8.66432 49.3397 8.72947C49.7312 8.79467 50.0575 8.99022 50.3837 9.25097C50.7099 9.51172 50.9709 9.83762 51.1667 10.2939C51.3624 10.7502 51.4929 11.3369 51.4929 12.0539C51.4929 12.445 51.4276 12.8361 51.3624 13.2924H45.8163C45.8163 13.8139 45.8816 14.2702 45.9468 14.6613C46.0773 15.0524 46.2078 15.3783 46.4035 15.6391C46.5993 15.8998 46.9255 16.0954 47.2518 16.2909C47.578 16.4213 48.0348 16.4865 48.5567 16.4865C48.9482 16.4865 49.3397 16.4213 49.7312 16.2909C50.1227 16.1606 50.4489 15.965 50.6447 15.8346L51.1667 16.8124ZM48.1652 9.83762C47.5127 9.83762 46.9255 10.0332 46.5341 10.3591C46.1426 10.685 45.8816 11.3369 45.8163 12.1843H50.1227C50.1227 11.3369 49.9269 10.685 49.6007 10.3591C49.2744 9.96802 48.8177 9.83762 48.1652 9.83762Z" fill="white"/>
<path d="M53.4502 5.33984H54.8205V9.64199H54.8856C55.1467 9.31609 55.4729 9.05534 55.9297 8.85979C56.3209 8.66424 56.7777 8.59904 57.3 8.59904C58.4092 8.59904 59.2572 8.99014 59.8445 9.70719C60.4319 10.4242 60.693 11.5323 60.693 13.0316C60.693 14.5308 60.3013 15.7042 59.5834 16.4864C58.8659 17.2686 57.8218 17.6597 56.4515 17.6597C55.7991 17.6597 55.2117 17.5945 54.6899 17.4641C54.1681 17.3338 53.7764 17.2034 53.5152 17.0079V5.33984H53.4502ZM57.0388 9.83754C56.4515 9.83754 55.9947 9.96794 55.6035 10.2938C55.2117 10.6198 54.9511 11.076 54.8205 11.6627V16.0301C55.0161 16.1605 55.2773 16.2256 55.6035 16.2908C55.9297 16.356 56.2559 16.356 56.5821 16.356C57.365 16.356 58.0174 16.0953 58.4742 15.5086C58.931 14.9219 59.1921 14.0745 59.1921 12.9012C59.1921 12.4449 59.1266 12.0538 59.0616 11.6627C58.9965 11.2716 58.8659 10.9457 58.6703 10.6849C58.4742 10.4242 58.2786 10.1635 58.0174 10.0331C57.7568 9.90274 57.4306 9.83754 57.0388 9.83754Z" fill="white"/>
<path d="M66.6956 15.1179C66.6956 14.7919 66.5656 14.5312 66.3695 14.2704C66.1738 14.0749 65.9127 13.8793 65.5865 13.749C65.2603 13.6186 64.9341 13.4882 64.6079 13.3579C64.2162 13.2275 63.89 13.0971 63.6293 12.9016C63.3031 12.706 63.042 12.4453 62.8464 12.1845C62.6502 11.8586 62.5202 11.4675 62.5202 10.946C62.5202 10.0986 62.7808 9.51198 63.2376 9.12088C63.6944 8.72973 64.3467 8.53418 65.1953 8.53418C65.8476 8.53418 66.3695 8.59938 66.7612 8.72973C67.1524 8.86013 67.5442 8.99048 67.8704 9.12088L67.5442 10.2942C67.283 10.1638 66.9568 10.0334 66.5656 9.96823C66.1738 9.83788 65.7821 9.83788 65.3258 9.83788C64.8035 9.83788 64.4123 9.90308 64.2162 10.0986C63.9555 10.2942 63.89 10.5549 63.89 11.0112C63.89 11.3371 64.0205 11.5327 64.2162 11.7282C64.4123 11.9238 64.6729 12.0542 64.9991 12.1845C65.3258 12.3149 65.652 12.4453 65.9782 12.5756C66.3695 12.706 66.6956 12.9016 66.9568 13.0971C67.283 13.2927 67.5442 13.5534 67.7398 13.8793C67.9354 14.2053 68.066 14.5964 68.066 15.1179C68.066 15.509 68.0009 15.8349 67.8704 16.1608C67.7398 16.4867 67.5442 16.7475 67.283 17.0082C67.0218 17.2689 66.6956 17.3993 66.3044 17.5297C65.9127 17.66 65.4559 17.7252 64.9991 17.7252C64.3467 17.7252 63.7594 17.66 63.3031 17.5297C62.8464 17.3993 62.4546 17.2689 62.1284 17.0734L62.5202 15.9001C62.7808 16.0304 63.107 16.1608 63.5638 16.2912C64.0205 16.4215 64.4123 16.4867 64.8691 16.4867C65.3909 16.4867 65.7821 16.3563 66.1088 16.1608C66.435 15.9652 66.6956 15.6393 66.6956 15.1179Z" fill="white"/>
<path d="M69.0449 8.79488H70.4152V7.10008L71.7856 6.70898V8.79488H74.1345V10.0334H71.7856V14.857C71.7856 15.4437 71.8506 15.9 71.9812 16.1607C72.1118 16.4215 72.3729 16.5518 72.7641 16.5518C73.0903 16.5518 73.3515 16.5518 73.5471 16.4867C73.7432 16.4215 74.0039 16.3563 74.2651 16.2259L74.5912 17.2689C74.2651 17.3993 73.9389 17.5296 73.5471 17.66C73.1559 17.7252 72.7641 17.7904 72.3729 17.7904C71.655 17.7904 71.1982 17.5948 70.872 17.2037C70.6109 16.8126 70.4152 16.1607 70.4152 15.183V10.0986H69.0449V8.79488Z" fill="white"/>
<path d="M78.6363 14.4008L79.0931 16.0956H79.1586L79.5499 14.4008L81.2464 8.79492H82.6167L80.0717 16.6171C79.876 17.2038 79.6804 17.7252 79.4848 18.2467C79.2887 18.7682 79.0931 19.2245 78.8319 19.6808C78.5713 20.0719 78.3101 20.3978 78.049 20.6586C77.7883 20.9193 77.3966 21.0497 77.0704 21.0497C76.6791 21.0497 76.2874 20.9845 76.0262 20.8541L76.2874 19.6808C76.418 19.746 76.6136 19.746 76.7442 19.746C77.0704 19.746 77.3966 19.5504 77.6577 19.2245C77.9839 18.8986 78.1795 18.3119 78.3751 17.4645L74.8521 8.79492H76.418L78.6363 14.4008Z" fill="white"/>
<path d="M85.683 15.379C85.683 15.7701 85.7481 16.096 85.8786 16.2264C86.0092 16.4219 86.2048 16.4871 86.466 16.4871C86.5966 16.4871 86.7922 16.4871 86.9228 16.422C87.1184 16.422 87.314 16.3568 87.5096 16.2916L87.6402 17.3997C87.4446 17.4649 87.1834 17.5953 86.8572 17.5953C86.531 17.6605 86.2699 17.6605 86.0092 17.6605C85.4869 17.6605 85.0301 17.5301 84.7039 17.2042C84.3777 16.8782 84.1821 16.4219 84.1821 15.7049V5.27539H85.5525V15.379H85.683Z" fill="white"/>
<path d="M95.601 16.8124C95.2748 17.0731 94.818 17.3339 94.2957 17.4642C93.7739 17.5946 93.1866 17.725 92.5992 17.725C91.9468 17.725 91.3595 17.5946 90.9032 17.3991C90.4464 17.2035 89.9897 16.8776 89.7285 16.4865C89.4023 16.0954 89.2067 15.6391 89.0106 15.0524C88.8805 14.4658 88.8149 13.8791 88.8149 13.1621C88.8149 11.6628 89.1411 10.5547 89.7935 9.77247C90.4464 8.99022 91.425 8.59912 92.5992 8.59912C92.9909 8.59912 93.3822 8.66432 93.7739 8.72947C94.1651 8.79467 94.4918 8.99022 94.818 9.25097C95.1442 9.51172 95.4049 9.83762 95.601 10.2939C95.7966 10.7502 95.9272 11.3369 95.9272 12.0539C95.9272 12.445 95.8616 12.8361 95.7966 13.2924H90.2503C90.2503 13.8139 90.3158 14.2702 90.3809 14.6613C90.5115 15.0524 90.642 15.3783 90.8377 15.6391C91.0333 15.8998 91.3595 16.0954 91.6862 16.2909C92.0124 16.4213 92.4691 16.4865 92.9909 16.4865C93.3822 16.4865 93.7739 16.4213 94.1651 16.2909C94.5569 16.1606 94.8831 15.965 95.0787 15.8346L95.601 16.8124ZM92.5992 9.83762C91.9468 9.83762 91.3595 10.0332 90.9682 10.3591C90.5765 10.685 90.3158 11.3369 90.2503 12.1843H94.5569C94.5569 11.3369 94.3613 10.685 94.0351 10.3591C93.7089 9.96802 93.1866 9.83762 92.5992 9.83762Z" fill="white"/>
</svg>
