<svg width="20" height="20" viewBox="0 0 20 20" fill="#0087FF" xmlns="http://www.w3.org/2000/svg">
<g clip-path="url(#clip0)">
<path d="M20 10C20 10.4315 19.6502 10.7812 19.2188 10.7812C18.7873 10.7812 18.4375 10.4315 18.4375 10C18.4375 5.34754 14.6525 1.5625 10 1.5625C5.34754 1.5625 1.5625 5.34754 1.5625 10C1.5625 14.6525 5.34754 18.4375 10 18.4375C11.3611 18.4375 12.6601 18.1236 13.8607 17.5046C14.2443 17.3068 14.7154 17.4574 14.9131 17.8409C15.1109 18.2244 14.9602 18.6956 14.5768 18.8933C13.1726 19.6173 11.59 20 10 20C7.32891 20 4.8177 18.9598 2.92891 17.0711C1.0402 15.1823 0 12.6711 0 10C0 7.32891 1.0402 4.8177 2.92891 2.92891C4.8177 1.0402 7.32891 0 10 0C12.6711 0 15.1823 1.0402 17.0711 2.92891C18.9598 4.8177 20 7.32891 20 10ZM19.0571 12.843C19.3681 13.1421 19.3778 13.6366 19.0788 13.9477C18.4505 14.6011 17.6054 14.9609 16.6992 14.9609C15.437 14.9609 14.3386 14.2485 13.7834 13.205C12.8727 14.2784 11.5147 14.9609 10 14.9609C7.26453 14.9609 5.03906 12.7355 5.03906 10C5.03906 7.26453 7.26453 5.03906 10 5.03906C12.7355 5.03906 14.9609 7.26453 14.9609 10V11.6602C14.9609 12.6186 15.7407 13.3984 16.6992 13.3984C17.1765 13.3984 17.6215 13.2089 17.9525 12.8647C18.2514 12.5537 18.7461 12.544 19.0571 12.843ZM13.3984 10C13.3984 8.12609 11.8739 6.60156 10 6.60156C8.12609 6.60156 6.60156 8.12609 6.60156 10C6.60156 11.8739 8.12609 13.3984 10 13.3984C11.8739 13.3984 13.3984 11.8739 13.3984 10Z"/>
</g>
<defs>
<clipPath id="clip0">
<rect width="20" height="20" fill="white"/>
</clipPath>
</defs>
</svg>
