<svg width="24" height="24" viewBox="0 0 24 24" fill="#404040" xmlns="http://www.w3.org/2000/svg">
<path d="M21.4272 0H10.2844C8.86421 0 7.71294 1.15127 7.71294 2.57143V7.71428C7.71294 8.18768 8.0967 8.57144 8.5701 8.57144C9.0435 8.57144 9.42726 8.18768 9.42726 7.71428V2.57143C9.42726 2.09802 9.81101 1.71427 10.2844 1.71427H21.4273C21.9007 1.71427 22.2844 2.09802 22.2844 2.57143V21.4286C22.2844 21.902 21.9007 22.2857 21.4273 22.2857H10.2844C9.81096 22.2857 9.42721 21.902 9.42721 21.4286V16.2857C9.42721 15.8123 9.04345 15.4286 8.57005 15.4286C8.09665 15.4286 7.71289 15.8123 7.71289 16.2857V21.4286C7.71289 22.8487 8.86416 24 10.2843 24H21.4272C22.8473 24 23.9986 22.8487 23.9986 21.4286V2.57143C23.9987 1.15127 22.8474 0 21.4272 0Z"/>
<path d="M17.1438 11.1423H2.92723L5.74982 8.31975C6.07868 7.97924 6.06924 7.43663 5.72873 7.10777C5.39655 6.78699 4.86996 6.78699 4.53783 7.10777L0.25209 11.3935C0.172486 11.4731 0.109556 11.5678 0.066967 11.672C-0.0197182 11.8817 -0.0197182 12.1172 0.066967 12.3269C0.109757 12.4315 0.172988 12.5265 0.252943 12.6063L4.53864 16.892C4.8675 17.2325 5.41011 17.242 5.75062 16.9131C6.09114 16.5843 6.10058 16.0417 5.77172 15.7011C5.76484 15.694 5.75781 15.687 5.75062 15.68L2.92723 12.8566H17.1438C17.6172 12.8566 18.001 12.4729 18.001 11.9994C18.001 11.526 17.6172 11.1423 17.1438 11.1423Z"/>
</svg>
