<svg width="20" height="20" viewBox="0 0 20 20" fill="#0087FF" xmlns="http://www.w3.org/2000/svg">
<g>
<path d="M9.99989 0C5.65146 0 2.11377 3.53769 2.11377 7.88612C2.11377 9.48876 2.59193 11.0316 3.49662 12.3477C4.33159 13.5624 5.47524 14.5106 6.81532 15.1022L9.38262 19.64C9.50846 19.8625 9.7443 20 9.99983 20C10.2554 20 10.4912 19.8625 10.6171 19.64L13.1844 15.1022C14.5244 14.5106 15.6681 13.5624 16.503 12.3477C17.4079 11.0316 17.886 9.48876 17.886 7.88612C17.886 3.53769 14.3483 0 9.99989 0ZM12.4204 13.8854C12.2717 13.9455 12.1477 14.0542 12.0688 14.1938L9.99989 17.8506L7.931 14.1938C7.85203 14.0542 7.72806 13.9455 7.57936 13.8854C5.12076 12.8923 3.53214 10.5374 3.53214 7.88612C3.53214 4.31978 6.43355 1.41837 9.99989 1.41837C13.5662 1.41837 16.4676 4.31978 16.4676 7.88612C16.4676 10.5374 14.879 12.8923 12.4204 13.8854Z"/>
<path d="M10.0001 4.86572C8.35764 4.86572 7.02148 6.20188 7.02148 7.84429C7.02148 9.48671 8.35764 10.8229 10.0001 10.8229C11.6425 10.8229 12.9786 9.48671 12.9786 7.84429C12.9786 6.20188 11.6425 4.86572 10.0001 4.86572ZM10.0001 9.4045C9.13973 9.4045 8.43985 8.70462 8.43985 7.84429C8.43985 6.98397 9.13973 6.28409 10.0001 6.28409C10.8604 6.28409 11.5603 6.98397 11.5603 7.84429C11.5603 8.70462 10.8604 9.4045 10.0001 9.4045Z"/>
</g>
</svg>
