<svg width="24" height="24" viewBox="0 0 24 24" fill="none" xmlns="http://www.w3.org/2000/svg">
<path d="M0.199129 11.4901L9.19927 1.74144C9.40777 1.51343 9.73628 1.43993 10.0228 1.55093C10.3108 1.66344 10.4998 1.94094 10.4998 2.24995V7.68003L23.451 11.2771C23.775 11.3671 24 11.6626 24 12.0001C24 12.3376 23.775 12.6331 23.451 12.7231L10.4998 16.3202V21.7503C10.4998 22.0593 10.3108 22.3368 10.0228 22.4493C9.93428 22.4838 9.84128 22.5003 9.74978 22.5003C9.54428 22.5003 9.34327 22.4163 9.19927 22.2588L0.199129 12.5086C-0.0663738 12.2206 -0.0663738 11.7781 0.199129 11.4901ZM8.99977 19.8317V15.7502C8.99977 15.4127 9.22477 15.1172 9.54877 15.0271L20.4479 12.0001L9.54877 8.97305C9.22477 8.88305 8.99977 8.58755 8.99977 8.25004V4.16848L1.77115 12.0001L8.99977 19.8317Z" fill="white"/>
</svg>
