<svg width="14" height="10" viewBox="0 0 14 10" fill="none" xmlns="http://www.w3.org/2000/svg">
<path d="M6.45372 8.88926L0.223657 2.65908C0.0794464 2.51498 -6.27229e-08 2.32263 -5.37575e-08 2.11752C-4.47921e-08 1.91242 0.0794465 1.72006 0.223657 1.57597L0.682352 1.11716C0.981244 0.818607 1.46703 0.818607 1.76547 1.11716L6.9971 6.34879L12.2345 1.11135C12.3787 0.967256 12.571 0.887696 12.776 0.887696C12.9812 0.887696 13.1734 0.967256 13.3178 1.11135L13.7763 1.57016C13.9206 1.71437 14 1.90661 14 2.11172C14 2.31682 13.9206 2.50918 13.7763 2.65328L7.54059 8.88926C7.39592 9.0337 7.20277 9.11303 6.99744 9.11257C6.79131 9.11303 6.59827 9.0337 6.45372 8.88926Z" fill="#404040"/>
</svg>
