<svg width="24" height="24" viewBox="0 0 24 24" fill="none" xmlns="http://www.w3.org/2000/svg">
<g opacity="0.45">
<path d="M7.16301 13.6558C7.76475 14.4711 8.45618 15.1921 9.34941 15.7022C10.3609 16.2804 11.45 16.4547 12.5986 16.4016C13.1352 16.3759 13.2966 16.2359 13.3213 15.7013C13.3379 15.3349 13.3803 14.9696 13.5606 14.6404C13.7379 14.3176 14.0068 14.2565 14.317 14.4574C14.4714 14.5589 14.6015 14.6859 14.7247 14.8217C15.027 15.1517 15.3196 15.4935 15.6328 15.8126C16.0265 16.2135 16.4935 16.4497 17.0794 16.4016L19.3495 16.4025C19.7149 16.3778 19.9049 15.9299 19.6952 15.5209C19.5475 15.2354 19.3536 14.9814 19.1487 14.7349C18.6848 14.1777 18.1381 13.7027 17.6213 13.1986C17.1554 12.7438 17.1258 12.4797 17.5001 11.9549C17.9097 11.3816 18.3488 10.8311 18.7615 10.2608C19.1466 9.72811 19.5417 9.19615 19.7433 8.55904C19.8724 8.15233 19.7582 7.97315 19.3428 7.90124C19.2709 7.88945 19.1961 7.88945 19.1232 7.88945L16.653 7.88635C16.3488 7.88152 16.1814 8.01451 16.0739 8.28416C15.9281 8.64873 15.7785 9.0131 15.605 9.36374C15.2131 10.1615 14.7747 10.9326 14.1602 11.5846C14.0243 11.7282 13.8736 11.9105 13.6472 11.8357C13.3646 11.7322 13.2809 11.2656 13.2858 11.1081L13.2836 8.25672C13.2287 7.85021 13.1379 7.66793 12.7333 7.58887H10.1676C9.82609 7.58887 9.65366 7.72205 9.47042 7.93565C9.36603 8.05994 9.33337 8.13958 9.55025 8.18094C9.97551 8.26155 10.2169 8.53739 10.28 8.964C10.3814 9.64654 10.3745 10.3318 10.3155 11.0163C10.2987 11.2161 10.2643 11.4152 10.1852 11.6023C10.0613 11.8967 9.8603 11.9559 9.59741 11.7748C9.36024 11.6112 9.19284 11.3808 9.02815 11.1494C8.41268 10.2796 7.92229 9.34228 7.52138 8.35723C7.40618 8.0725 7.20631 7.90027 6.90495 7.89525C6.16423 7.88346 5.42274 7.88172 4.68105 7.89621C4.23588 7.90414 4.10289 8.12083 4.28517 8.5256C5.09181 10.321 5.99007 12.0661 7.16301 13.6558Z" fill="white"/>
<path d="M0 0V24H24V0H0ZM22.5155 22.5155H1.48454V1.48454H22.5155V22.5155Z" fill="white"/>
</g>
</svg>
