<svg width="10" height="10" viewBox="0 0 10 10" fill="none" xmlns="http://www.w3.org/2000/svg">
<g clip-path="url(#clip0)">
<path d="M5.3902 7.77692L9.84025 3.3268C9.94325 3.22387 10 3.08647 10 2.93997C10 2.79347 9.94325 2.65607 9.84025 2.55315L9.51261 2.22542C9.29911 2.01217 8.95212 2.01217 8.73895 2.22542L5.00208 5.9623L1.26105 2.22128C1.15804 2.11835 1.02073 2.06152 0.874308 2.06152C0.727723 2.06152 0.590407 2.11835 0.487319 2.22128L0.15976 2.549C0.0567531 2.65201 5.69023e-06 2.78932 5.68383e-06 2.93582C5.67743e-06 3.08233 0.0567531 3.21973 0.15976 3.32265L4.61387 7.77692C4.7172 7.88009 4.85517 7.93676 5.00183 7.93644C5.14907 7.93676 5.28695 7.88009 5.3902 7.77692Z" fill="#333333"/>
</g>
<defs>
<clipPath id="clip0">
<rect width="10" height="10" fill="white" transform="translate(10) rotate(90)"/>
</clipPath>
</defs>
</svg>
