<svg width="24" height="24" viewBox="0 0 24 24" fill="#0087FF" xmlns="http://www.w3.org/2000/svg">
<g clip-path="url(#clip0)">
<path d="M23.8309 11.4926C23.7852 11.4315 22.686 9.9799 20.6889 8.52753C18.035 6.59735 15.0304 5.57715 12.0001 5.57715C8.96968 5.57715 5.96507 6.59735 3.31117 8.52745C1.314 9.9799 0.214768 11.4315 0.16903 11.4926C-0.0563434 11.7931 -0.0563434 12.2062 0.16903 12.5067C0.214768 12.5678 1.314 14.0194 3.31117 15.4719C5.96515 17.402 8.96968 18.4222 12.0001 18.4222C15.0305 18.4222 18.0351 17.402 20.6889 15.4718C22.686 14.0193 23.7851 12.5677 23.8309 12.5067C24.0563 12.2062 24.0563 11.793 23.8309 11.4926ZM16.7325 11.9996C16.7325 14.6091 14.6096 16.7321 12.0001 16.7321C9.39069 16.7321 7.2677 14.6091 7.2677 11.9996C7.2677 9.39016 9.39061 7.26725 12.0001 7.26725C14.6095 7.26725 16.7325 9.39016 16.7325 11.9996ZM1.95166 11.9995C2.67376 11.2025 4.28135 9.63363 6.60547 8.52107C5.95626 9.5243 5.57752 10.7182 5.57752 11.9996C5.57752 13.2856 5.95885 14.4835 6.61242 15.489C5.84168 15.12 5.08693 14.6694 4.3502 14.1376C3.22713 13.3269 2.41089 12.507 1.95166 11.9995ZM19.6498 14.1376C18.9131 14.6694 18.1584 15.1199 17.3878 15.489C18.0413 14.4836 18.4226 13.2855 18.4226 11.9996C18.4226 10.7137 18.0413 9.51573 17.3878 8.51024C18.1584 8.87929 18.9131 9.32988 19.6498 9.86167C20.7728 10.6723 21.5891 11.4922 22.0482 11.9996C21.5887 12.5073 20.7727 13.327 19.6498 14.1376Z"/>
<path d="M11.9998 13.3942C12.7699 13.3942 13.3942 12.7699 13.3942 11.9998C13.3942 11.2297 12.7699 10.6055 11.9998 10.6055C11.2297 10.6055 10.6055 11.2297 10.6055 11.9998C10.6055 12.7699 11.2297 13.3942 11.9998 13.3942Z"/>
</g>
<defs>
<clipPath id="clip0">
<rect width="24" height="24" fill="white"/>
</clipPath>
</defs>
</svg>
