<svg width="24" height="24" viewBox="0 0 24 24" fill="#0087FF" xmlns="http://www.w3.org/2000/svg">
<g clip-path="url(#clip0)">
<path d="M23.8309 10.0991C23.7852 10.0381 22.686 8.58635 20.689 7.13406C18.0351 5.2038 15.0306 4.18359 12.0001 4.18359C8.96976 4.18359 5.96515 5.2038 3.31117 7.13398C1.31408 8.58635 0.214768 10.0381 0.16903 10.0991C-0.0563434 10.3996 -0.0563434 10.8127 0.16903 11.1132C0.209192 11.1668 1.05945 12.2894 2.61444 13.5442L1.48362 15.8057C1.27489 16.2231 1.4441 16.7308 1.86164 16.9394C1.98293 17.0001 2.11182 17.0288 2.23885 17.0288C2.54883 17.0288 2.84725 16.8576 2.99529 16.5615L3.99966 14.553C4.85986 15.1156 5.7523 15.5859 6.66705 15.96L5.66673 17.9607C5.458 18.378 5.62721 18.8857 6.04475 19.0944C6.16604 19.155 6.29501 19.1837 6.42196 19.1837C6.73194 19.1837 7.03045 19.0125 7.17849 18.7164L8.27998 16.5134C9.22543 16.7773 10.1874 16.9417 11.155 17.0021V18.9723C11.155 19.439 11.5334 19.8174 12.0001 19.8174C12.4667 19.8174 12.8452 19.439 12.8452 18.9723V17.0021C13.8129 16.9417 14.7747 16.7773 15.7201 16.5134L16.8216 18.7164C16.9698 19.0125 17.2681 19.1837 17.5782 19.1837C17.7051 19.1837 17.8342 19.155 17.9554 19.0944C18.3729 18.8857 18.5421 18.378 18.3334 17.9607L17.3331 15.9601C18.2479 15.5859 19.1403 15.1156 20.0005 14.5529L21.0048 16.5615C21.1529 16.8576 21.4512 17.0288 21.7613 17.0288C21.8883 17.0288 22.0173 17.0001 22.1386 16.9394C22.556 16.7308 22.7252 16.2231 22.5165 15.8057L21.3858 13.5442C22.9408 12.2894 23.7909 11.1668 23.831 11.1132C24.0563 10.8127 24.0563 10.3996 23.8309 10.0991ZM19.6498 12.744C17.2649 14.4656 14.6912 15.3385 12.0001 15.3385C9.30899 15.3385 6.73533 14.4655 4.3502 12.744C3.22713 11.9334 2.41097 11.1135 1.95174 10.6061C2.41121 10.0984 3.22729 9.27863 4.3502 8.4682C6.73533 6.74659 9.30899 5.87378 12.0001 5.87378C14.6912 5.87378 17.2649 6.74667 19.6498 8.4682C20.7729 9.27879 21.5891 10.0987 22.0483 10.6061C21.5888 11.1138 20.7728 11.9336 19.6498 12.744Z"/>
</g>
<defs>
<clipPath id="clip0">
<rect width="24" height="24" fill="white"/>
</clipPath>
</defs>
</svg>
