<svg width="16" height="16" viewBox="0 0 16 16" fill="#8B3DB1" xmlns="http://www.w3.org/2000/svg">
<g clip-path="url(#clip0)">
<path d="M7.97344 14.6453H1.99334C1.62656 14.6453 1.32891 14.3476 1.32891 13.9809V2.02072C1.32891 1.65394 1.62659 1.35628 1.99334 1.35628H7.97344C8.34087 1.35628 8.63787 1.05928 8.63787 0.691844C8.63787 0.324406 8.34087 0.0273438 7.97344 0.0273438H1.99334C0.894344 0.0273438 0 0.921719 0 2.02072V13.9808C0 15.0798 0.894344 15.9742 1.99334 15.9742H7.97344C8.34087 15.9742 8.63787 15.6772 8.63787 15.3097C8.63787 14.9423 8.34087 14.6453 7.97344 14.6453Z"/>
<path d="M15.8028 7.52664L11.7629 3.53992C11.5024 3.28211 11.0812 3.28546 10.8234 3.54658C10.5656 3.80771 10.5682 4.2283 10.83 4.48611L13.7171 7.33527H5.98084C5.61341 7.33527 5.31641 7.63227 5.31641 7.99971C5.31641 8.36714 5.61341 8.66417 5.98084 8.66417H13.7171L10.83 11.5133C10.5683 11.7711 10.5663 12.1917 10.8234 12.4529C10.9536 12.5844 11.125 12.6509 11.2965 12.6509C11.4653 12.6509 11.634 12.5871 11.7629 12.4595L15.8028 8.47277C15.929 8.34786 16.0008 8.17774 16.0008 7.99967C16.0008 7.82167 15.9297 7.65224 15.8028 7.52664Z"/>
</g>
<defs>
<clipPath id="clip0">
<rect width="16" height="16" fill="white"/>
</clipPath>
</defs>
</svg>
